# xmcd
#
# Track frame offsets:
#	150
#	17839
#	30617
#	46171
#	55137
#	66046
#	80845
#	93758
#	108780
#	122394
#	134720
#	146352
#	165722
#	175845
#	193419
#	203972
#	215909
#	227003
#	237553
#	252055
#	268577
#	282229
#	294102
#	309961
#	324188
#
# Disc length: 4436 seconds
#
# Revision: 1
# Processed by: cddbd v1.5.1PL0 Copyright (c) Steve Scherf et al.
# Submitted via: audiograbber 1.82.01
#
DISCID=65115219
DTITLE=Руски - Старинни руски песни и романси
DYEAR=2000
DGENRE=Other
TTITLE0=По диким степям забайкалья
TTITLE1=По ком
TTITLE2=В час роковой
TTITLE3=Цыганский табор
TTITLE4=Камаринская
TTITLE5=Кон гулял на воле
TTITLE6=Конфеточки, бараночки
TTITLE7=Застольная
TTITLE8=Я раз пошел
TTITLE9=Метелица
TTITLE10=Ну целуй, не балуй
TTITLE11=Ни кола, ни двора
TTITLE12=Колечики
TTITLE13=Не смущай
TTITLE14=Раз, два, люблю тебя!
TTITLE15=Что за хор?
TTITLE16=Отойди
TTITLE17=Красный сарафан
TTITLE18=Осень
TTITLE19=Две розы
TTITLE20=Я ехала домой
TTITLE21=Прэ долина
TTITLE22=Луны волшебной полосы
TTITLE23=Светит месяц
TTITLE24=Ой, мороз!
EXTD=
EXTT0=
EXTT1=
EXTT2=
EXTT3=
EXTT4=
EXTT5=
EXTT6=
EXTT7=
EXTT8=
EXTT9=
EXTT10=
EXTT11=
EXTT12=
EXTT13=
EXTT14=
EXTT15=
EXTT16=
EXTT17=
EXTT18=
EXTT19=
EXTT20=
EXTT21=
EXTT22=
EXTT23=
EXTT24=
PLAYORDER=
